PathFileType	4	(X/Y/Z)	./resultDataOpenSim/trcMotMarkerGrf/sub10/qtm-12-01.trc
DataRate	CameraRate	NumFrames	NumMarkers	Units	OrigDataRate	OrigDataStartFrame	OrigNumFrames
250.000000	250.000000	8	24	m	250.000000	1	465
Frame#	Time	L.Toe.Tip			R.Toe.Tip			L.Ankle.Lat			R.Ankle.Lat			L.Ankle.Med			R.Ankle.Med			L.Heel			R.Heel			L.Knee.Lat			R.Knee.Lat			L.Knee.Med			R.Knee.Med			L.Thigh.Upper			R.Thigh.Upper			L.ASIS			R.ASIS			V.Sacral			L.Acromium			R.Acromium			C7			L.Elbow			R.Elbow			L.Wrist.Lat			R.Wrist.Lat
		X1	Y1	Z1	X2	Y2	Z2	X3	Y3	Z3	X4	Y4	Z4	X5	Y5	Z5	X6	Y6	Z6	X7	Y7	Z7	X8	Y8	Z8	X9	Y9	Z9	X10	Y10	Z10	X11	Y11	Z11	X12	Y12	Z12	X13	Y13	Z13	X14	Y14	Z14	X15	Y15	Z15	X16	Y16	Z16	X17	Y17	Z17	X18	Y18	Z18	X19	Y19	Z19	X20	Y20	Z20	X21	Y21	Z21	X22	Y22	Z22	X23	Y23	Z23	X24	Y24	Z24

1	0	-1.5570719	0.038095327	-0.20196109	-1.0276441	0.1071461	-0.04992304	-1.6876185	0.06344437	-0.23935382	-1.1661777	0.071089096	-0.034444936	-1.6797542	0.089791679	-0.15891872	-1.1468443	0.11278152	-0.1097522	NaN	NaN	NaN	-1.1946064	0.03542058	-0.094275893	-1.5840342	0.43732731	-0.27420811	-1.2873763	0.45361393	0.0064373046	-1.5862453	0.41741364	-0.15462478	-1.2575516	0.46766658	-0.11899133	-1.4819703	0.82056656	-0.33432486	-1.4265	0.84797941	0.04883479	-1.4061183	0.92294163	-0.27841566	-1.3733529	0.94259266	-0.036079708	-1.587023	0.9466526	-0.12509699	-1.3922179	1.3880162	-0.32339361	-1.4498058	1.3976653	-0.0059008151	-1.4989928	1.4302768	-0.18300922	-1.446304	1.034422	-0.3491929	NaN	NaN	NaN	-1.2153762	0.93034206	-0.36361941	-1.5681633	0.87928504	0.12289296
2	0.004	-1.5568554	0.037984737	-0.201933	-1.0158109	0.11009827	-0.051617195	-1.6878154	0.063468243	-0.23933841	-1.1532983	0.071963703	-0.034807345	-1.6792444	0.090099416	-0.15861271	-1.1355196	0.11387388	-0.11047958	NaN	NaN	NaN	-1.1817501	0.03567311	-0.094341337	-1.5809274	0.43683033	-0.27401291	-1.2821411	0.45231428	0.0061370346	-1.5830016	0.41700206	-0.154465	-1.2531803	0.46607588	-0.1196104	-1.4771527	0.81959496	-0.33432324	-1.4212251	0.84640222	0.048870804	-1.4012495	0.9219993	-0.27822734	-1.3681634	0.94169527	-0.035988848	-1.5816155	0.9448812	-0.12498465	-1.3874409	1.3866501	-0.32337485	-1.4452541	1.3963347	-0.0059174612	-1.4944257	1.4289993	-0.18342702	-1.4401245	1.0326896	-0.34858584	NaN	NaN	NaN	-1.2081865	0.93131331	-0.36228855	-1.5656514	0.87816417	0.12293947
3	0.008	-1.5566578	0.037871878	-0.20189492	-1.0041554	0.11319023	-0.05358345	-1.6878374	0.063592263	-0.23924982	-1.1406985	0.072837102	-0.035210355	-1.6799192	0.090190025	-0.15798741	-1.1243771	0.11497037	-0.11120559	NaN	NaN	NaN	-1.169119	0.036009411	-0.094450731	-1.5778149	0.43635069	-0.27380513	-1.2768738	0.45100431	0.0058801205	-1.579745	0.41659897	-0.15426947	-1.248845	0.46450396	-0.1201987	-1.4722921	0.81854156	-0.33424857	-1.4160193	0.84476017	0.04889302	-1.396427	0.92104386	-0.27805304	-1.3629346	0.94078771	-0.0358708	-1.5762085	0.94311221	-0.12487206	-1.3826452	1.3852898	-0.32334962	-1.4406184	1.3950185	-0.0059602304	-1.4898737	1.4277718	-0.18366042	-1.4339567	1.0310004	-0.34797354	NaN	NaN	NaN	-1.2009491	0.93228813	-0.3609146	-1.5631549	0.87704346	0.12299841
4	0.012	-1.5564873	0.037756764	-0.20184502	-0.99277964	0.11635308	-0.055818667	-1.6876855	0.063850572	-0.23909	-1.1285943	0.073683504	-0.035710638	-1.6822629	0.089991228	-0.15692075	-1.1135135	0.11607699	-0.11193523	NaN	NaN	NaN	-1.1568492	0.036461458	-0.094631087	-1.5746694	0.43589161	-0.27359095	-1.2715324	0.44970487	0.0056854407	-1.5764687	0.41620109	-0.15402297	-1.2445493	0.46295793	-0.12072958	-1.4673921	0.81739527	-0.33410576	-1.4109207	0.84303288	0.048891443	-1.391652	0.9200532	-0.27791556	-1.3576493	0.93986042	-0.035710024	-1.5708691	0.94138846	-0.12470097	-1.3778077	1.383944	-0.32332031	-1.4359038	1.3937162	-0.0060082712	-1.4853216	1.4265915	-0.1837668	-1.4278119	1.0293844	-0.34733696	NaN	NaN	NaN	-1.1936493	0.93327195	-0.35948288	-1.5606501	0.87592948	0.12307051
5	0.016	-1.556336	0.03764098	-0.20179048	-0.98171233	0.11935278	-0.058049765	-1.6874812	0.064215771	-0.23889741	-1.1171276	0.074450026	-0.03636253	-1.6852773	0.089726037	-0.15570312	-1.1029757	0.1171846	-0.11267152	NaN	NaN	NaN	-1.1450082	0.03701498	-0.094887962	-1.5714793	0.43544027	-0.27338516	-1.266063	0.44846475	0.0055555937	-1.5731939	0.41579279	-0.15373397	-1.2402838	0.46144489	-0.12118512	-1.462492	0.81621743	-0.3339836	-1.4057742	0.84128322	0.048909945	-1.3868948	0.91901946	-0.27782457	-1.3523034	0.9389117	-0.035511128	-1.5656407	0.93973816	-0.1244352	-1.3729273	1.3826251	-0.32328659	-1.4311857	1.392428	-0.0060169692	-1.4807295	1.4254215	-0.18393489	-1.4217061	1.0278541	-0.34665865	NaN	NaN	NaN	-1.1863271	0.93427241	-0.35800437	-1.558074	0.87483503	0.12314608
6	0.02	-1.5561872	0.037531351	-0.20174031	-0.97093391	0.12198588	-0.059987198	-1.6873036	0.064649909	-0.23866824	-1.1062672	0.07511055	-0.03715621	-1.6871672	0.089770342	-0.15482916	-1.0927657	0.11827336	-0.11340585	NaN	NaN	NaN	-1.1336165	0.037629703	-0.095218279	-1.5682493	0.43498039	-0.27319001	-1.2603934	0.44733747	0.0054939812	-1.5698976	0.41536314	-0.15343669	-1.2360293	0.45997941	-0.12156236	-1.4576056	0.81507697	-0.33396371	-1.4002545	0.8396183	0.049042186	-1.3820915	0.91796486	-0.27775596	-1.3468878	0.93794024	-0.035287513	-1.5604763	0.93813835	-0.12410689	-1.3680227	1.3813391	-0.32323544	-1.4265026	1.3911599	-0.0059803251	-1.4760758	1.4242368	-0.18429601	-1.4156219	1.0263863	-0.34594814	NaN	NaN	NaN	-1.1790276	0.93528848	-0.35649598	-1.555372	0.87376503	0.12321202
7	0.024	-1.5560315	0.03743757	-0.20169751	-0.96044816	0.12417992	-0.061540851	-1.6871281	0.065137083	-0.23835459	-1.095825	0.075695342	-0.03800162	-1.6871258	0.09029168	-0.15448631	-1.0828448	0.11932717	-0.11411652	NaN	NaN	NaN	-1.1226849	0.038249781	-0.095615142	-1.5649744	0.43450712	-0.27299612	-1.2544751	0.44635651	0.005499057	-1.5664742	0.41490742	-0.15317769	-1.2317546	0.45857418	-0.12187381	-1.452715	0.81400342	-0.33403659	-1.3942571	0.83808964	0.049322611	-1.3771724	0.91691831	-0.27767518	-1.341401	0.93694084	-0.03504944	-1.5553105	0.9365597	-0.12376347	-1.3631157	1.3800843	-0.32315344	-1.4218234	1.389916	-0.0059306244	-1.471379	1.4230355	-0.18487332	-1.4095118	1.0249339	-0.34523861	NaN	NaN	NaN	-1.1717778	0.93630642	-0.35497926	-1.5525388	0.87271337	0.12325654
8	0.028	-1.5558727	0.037358779	-0.2016564	-0.95032791	0.1259925	-0.062876537	-1.6868956	0.065678707	-0.23793046	-1.0856437	0.076244793	-0.038805822	-1.6856604	0.09116911	-0.15447968	-1.0731758	0.12032807	-0.11478341	NaN	NaN	NaN	-1.1122291	0.038824546	-0.096055475	-1.5616428	0.43402825	-0.27279974	-1.2483307	0.44551077	0.0055469468	-1.5628417	0.41441601	-0.15297491	-1.2274242	0.45723314	-0.12213866	-1.4478001	0.81298753	-0.33412209	-1.3880417	0.83666253	0.04967627	-1.3721225	0.91588503	-0.27757858	-1.3358481	0.93590857	-0.034807353	-1.5501135	0.93499805	-0.12343048	-1.3582109	1.3788543	-0.32304364	-1.4170752	1.3886976	-0.0058883452	-1.4666605	1.421816	-0.18560146	-1.4033431	1.0234743	-0.34454624	NaN	NaN	NaN	-1.1646017	0.93732142	-0.35347503	-1.5495785	0.8716737	0.12327513
